# xmcd
#
# Track frame offsets: 
#        150
#        13735
#        30411
#        43342
#        57877
#        77290
#        92736
#        105620
#        121952
#        133412
#        151261
#        164883
#        179797
#        195200
#        211556
#        226282
#
# Disc length: 3202 seconds
#
# Revision: 3
# Processed by: cddbd v1.5.2PL0 Copyright (c) Steve Scherf et al.
# Submitted via: ExactAudioCopy v0.99pb5
#
DISCID=cf0c8010
DTITLE=Various Artist - Schlager Souvenirs Vol.2 [CD4)
DYEAR=1997
DGENRE=Oldies
TTITLE0=Ireen Sheer - Er kann nicht tanzen
TTITLE1=Joerg Hindemith - Schmeiss' nicht gleich alles hin
TTITLE2=Cindy and Bert - Ich habe die Rose geseh'n
TTITLE3=Julian Sander - Du bist mir nicht nah genug
TTITLE4=Sandy van Ry - Sie passt gar nicht zu Dir
TTITLE5=Erik Sylvester - Sommer, Sonne und Amor
TTITLE6=Lolita - Das schoenste im Leben
TTITLE7=Kai Thomas - Tanz den letzten Tanz
TTITLE8=Elke Sommer - Nachts scheint der Mond
TTITLE9=Drafi Deutscher - Wann gehen wir nach San Franciso
TTITLE10=Mary Roos - Einfach raus hier
TTITLE11=Andy Grey - Traeumen von Dir
TTITLE12=Ulla Norden - Vielleicht ein andermal
TTITLE13=Thomas Brandau - In Deiner Haut spazierengeh'n
TTITLE14=Alex - Gib's doch zu
TTITLE15=Bata Illic - Du gehst als Braut zum Altar
EXTD=
EXTT0=
EXTT1=
EXTT2=
EXTT3=
EXTT4=
EXTT5=
EXTT6=
EXTT7=
EXTT8=
EXTT9=
EXTT10=
EXTT11=
EXTT12=
EXTT13=
EXTT14=
EXTT15=
PLAYORDER=
